<svg xmlns="http://www.w3.org/2000/svg" width="44.524" height="44.523" viewBox="0 0 44.524 44.523"><defs><style>.a{fill:#707383;}.b{fill:#a7b2bc;}</style></defs><g transform="translate(-82.585 -206.248)"><path class="a" d="M87.229,212.926c1.059-.9,4.74-2.226,8.713-2.226s7.655,1.323,8.714,2.226H109.3c0-5-9.173-6.678-13.357-6.678s-13.357,1.682-13.357,6.678V239.64c0,5,9.173,6.679,13.357,6.679a22.247,22.247,0,0,0,2.226-.13V241.72a19,19,0,0,1-2.226.146c-4.265,0-8.2-1.525-8.9-2.418V237.9a25.348,25.348,0,0,0,8.9,1.735,22.192,22.192,0,0,0,2.226-.129v-4.47a18.77,18.77,0,0,1-2.226.147c-4.311,0-8.258-1.554-8.9-2.444v-1.517a25.348,25.348,0,0,0,8.9,1.735,22.214,22.214,0,0,0,2.226-.13v-4.469a18.987,18.987,0,0,1-2.226.146c-4.311,0-8.258-1.553-8.9-2.443v-1.518a25.348,25.348,0,0,0,8.9,1.735,22.192,22.192,0,0,0,2.226-.129v-4.47a18.77,18.77,0,0,1-2.226.147c-4.311,0-8.258-1.554-8.9-2.444V217.87a25.348,25.348,0,0,0,8.9,1.735,22.218,22.218,0,0,0,2.226-.13v-4.467a19.223,19.223,0,0,1-2.226.144C91.97,215.152,88.288,213.83,87.229,212.926Z"/><path class="b" d="M113.752,217.379c-4.184,0-13.357,1.682-13.357,6.678v20.035c0,5,9.173,6.679,13.357,6.679s13.357-1.682,13.357-6.679V224.057C127.109,219.061,117.935,217.379,113.752,217.379Zm8.9,13.139c-.646.89-4.593,2.444-8.9,2.444s-8.258-1.554-8.9-2.444V229a23.73,23.73,0,0,0,17.809,0Zm0,6.678c-.646.891-4.593,2.444-8.9,2.444s-8.258-1.553-8.9-2.444v-1.517a23.718,23.718,0,0,0,17.809,0Zm-8.9-15.365c3.973,0,7.654,1.323,8.713,2.226-1.059.9-4.741,2.226-8.713,2.226s-7.655-1.322-8.714-2.226C106.1,223.154,109.779,221.831,113.752,221.831Zm0,24.488c-4.266,0-8.2-1.526-8.9-2.419v-1.542a23.73,23.73,0,0,0,17.809,0V243.9C121.947,244.793,118.017,246.319,113.752,246.319Z"/></g></svg>