<svg xmlns="http://www.w3.org/2000/svg" width="53.866" height="52.551" viewBox="0 0 53.866 52.551"><defs><style>.a{fill:#707383;}</style></defs><path class="a" d="M104.847,895.108a26.338,26.338,0,0,1,13.519,3.613,26.809,26.809,0,0,1,9.8,9.8,26.975,26.975,0,0,1-14.8,39.085,1.568,1.568,0,0,1-1.4-.246,1.371,1.371,0,0,1-.456-1.052q0-.105.018-2.682t.017-4.717q0-3.4-1.823-4.98a24.073,24.073,0,0,0,3.594-.631,14.359,14.359,0,0,0,3.3-1.368,9.806,9.806,0,0,0,2.84-2.332,10.852,10.852,0,0,0,1.859-3.682,17.693,17.693,0,0,0,.719-5.278,10.393,10.393,0,0,0-2.771-7.225,9.338,9.338,0,0,0-.28-7.154,4.6,4.6,0,0,0-2.841.386,18.932,18.932,0,0,0-3.226,1.543l-1.333.842a25.31,25.31,0,0,0-13.466,0q-.561-.386-1.491-.947a20.98,20.98,0,0,0-2.928-1.35,4.834,4.834,0,0,0-2.981-.474,9.338,9.338,0,0,0-.28,7.154,10.393,10.393,0,0,0-2.771,7.225,17.514,17.514,0,0,0,.719,5.26,11.282,11.282,0,0,0,1.841,3.682,9.429,9.429,0,0,0,2.823,2.35,14.359,14.359,0,0,0,3.3,1.368,24.05,24.05,0,0,0,3.594.631,5.929,5.929,0,0,0-1.718,3.612,6.951,6.951,0,0,1-1.578.526,9.922,9.922,0,0,1-2,.175,4.127,4.127,0,0,1-2.3-.754A6.182,6.182,0,0,1,90.4,935.3a5.668,5.668,0,0,0-1.7-1.824,5.13,5.13,0,0,0-1.736-.842l-.7-.105a2.277,2.277,0,0,0-1.017.158c-.187.1-.245.24-.175.4a1.892,1.892,0,0,0,.316.491,2.565,2.565,0,0,0,.455.421l.246.175a4.23,4.23,0,0,1,1.525,1.333,8.772,8.772,0,0,1,1.1,1.789l.351.806a4.441,4.441,0,0,0,1.543,2.157,5.463,5.463,0,0,0,2.35,1.052,14.887,14.887,0,0,0,2.437.245,10.338,10.338,0,0,0,1.946-.122l.807-.141q0,1.333.017,3.1t.018,1.911a1.371,1.371,0,0,1-.456,1.052,1.568,1.568,0,0,1-1.4.246,27,27,0,0,1-14.8-39.085,26.809,26.809,0,0,1,9.8-9.8A26.338,26.338,0,0,1,104.847,895.108ZM88.119,933.79q.1-.246-.245-.421-.351-.105-.456.07-.106.246.245.421C87.874,934,88.025,933.977,88.119,933.79Zm1.087,1.192c.164-.117.14-.3-.07-.561-.234-.21-.421-.246-.561-.105-.164.117-.14.3.07.561Q89,935.228,89.206,934.982Zm1.052,1.578q.316-.246,0-.666-.281-.456-.6-.211-.315.176,0,.632T90.258,936.56Zm1.473,1.473q.28-.281-.14-.666-.422-.422-.7-.1-.315.28.141.666Q91.45,938.348,91.731,938.033Zm2,.877q.1-.385-.456-.561-.527-.141-.666.245t.456.526c.35.14.573.07.666-.21Zm2.209.175c0-.3-.2-.432-.6-.386q-.561,0-.561.386,0,.456.6.386Q95.939,939.471,95.939,939.085Zm2.034-.351c-.046-.257-.257-.362-.631-.315q-.561.105-.491.526c.047.28.257.374.631.28s.538-.257.491-.491Z" transform="translate(-77.914 -895.108)"/></svg>