<svg xmlns="http://www.w3.org/2000/svg" width="63.402" height="63.249" viewBox="0 0 63.402 63.249"><defs><style>.a{fill:#707383;}</style></defs><g transform="translate(-73.146 -372.416)"><path class="a" d="M94.585,420.869l-7.621,4.354a.955.955,0,0,0-.481.828v8.659a.954.954,0,0,0,1.426.828l7.621-4.356a.953.953,0,0,0,.48-.827V421.7A.952.952,0,0,0,94.585,420.869Zm-12.392,4.354-7.621-4.354a.953.953,0,0,0-1.426.827v8.659a.953.953,0,0,0,.48.827l7.621,4.356a.954.954,0,0,0,1.426-.828v-8.659A.956.956,0,0,0,82.193,425.223Zm10.435-9.279-7.577-4.33a.951.951,0,0,0-.946,0l-7.577,4.33a.952.952,0,0,0,0,1.654l7.577,4.33a.951.951,0,0,0,.946,0l7.577-4.33A.952.952,0,0,0,92.628,415.944Zm42.494,4.925-7.621,4.354a.956.956,0,0,0-.48.828v8.659a.954.954,0,0,0,1.426.828l7.62-4.356a.952.952,0,0,0,.481-.827V421.7A.953.953,0,0,0,135.122,420.869Zm-1.956-4.925-7.577-4.33a.951.951,0,0,0-.946,0l-7.577,4.33a.952.952,0,0,0,0,1.654l7.577,4.33a.951.951,0,0,0,.946,0l7.577-4.33A.952.952,0,0,0,133.166,415.944Zm-10.435,9.279-7.621-4.354a.953.953,0,0,0-1.426.827v8.659a.951.951,0,0,0,.48.827l7.621,4.356a.954.954,0,0,0,1.426-.828v-8.659A.956.956,0,0,0,122.731,425.223Z"/><path class="a" d="M105.949,372.416c-6.268,0-11.35,2.541-11.35,5.675V383.5l.444.555c1.3,1.63,5.274,3.383,10.906,3.383,5.58,0,9.762-1.769,11.009-3.516l.342-.48v-5.35C117.3,374.957,112.218,372.416,105.949,372.416Zm0,8.108c-3.582,0-6.486-1.089-6.486-2.433s2.9-2.432,6.486-2.432,6.487,1.089,6.487,2.432S109.532,380.524,105.949,380.524Zm6.825,32.458-4.849-2.926v-4.531a2.027,2.027,0,1,0-4.054,0v4.514L99.126,412.9a2.027,2.027,0,1,0,2.093,3.471l4.665-2.816,4.793,2.895a2.028,2.028,0,0,0,2.1-3.471ZM94.6,388.839v5.311c0,.022.008.044.009.067s-.009.059-.009.089c0,3.135,5.082,5.676,11.35,5.676s11.351-2.541,11.351-5.676c0-.03-.008-.059-.009-.089s.009-.045.009-.067v-5.334a22.9,22.9,0,0,1-11.351,2.675A22.8,22.8,0,0,1,94.6,388.839Z"/></g></svg>