<svg xmlns="http://www.w3.org/2000/svg" width="45.204" height="55.232" viewBox="0 0 45.204 55.232"><defs><style>.a{fill:#707383;}</style></defs><g transform="translate(-82.245 -720.069)"><path class="a" d="M125.229,752.659a2.877,2.877,0,0,0-.457-.036,3.888,3.888,0,0,0-2.434.927,3.135,3.135,0,0,0-2.445-2.225,2.858,2.858,0,0,0-.454-.036,3.852,3.852,0,0,0-2.31.835,3.429,3.429,0,0,0-2.572-2.133,2.5,2.5,0,0,0-.4-.031,3.788,3.788,0,0,0-2.714,1.2V742.73a2.733,2.733,0,0,0-1.8-2.643,2.857,2.857,0,0,0-.87-.137,2.668,2.668,0,0,0-2.668,2.668v21.344a2.668,2.668,0,0,1-2.668-2.668v-2.409a.925.925,0,0,0-.925-.926h-.8a3.606,3.606,0,0,0-3.607,3.606v6.586a4,4,0,0,0,1.365,3.01l3.591,3.148a4,4,0,0,0,2.638.992h14.761a4,4,0,0,0,2.83-1.172l2.992-2.992a4,4,0,0,0,1.172-2.83V755.434A2.768,2.768,0,0,0,125.229,752.659Z"/><path class="a" d="M116.733,734.864a.8.8,0,0,0-.79-.666h-1.63a1.657,1.657,0,0,1-1.111-1.1A14.236,14.236,0,0,0,112,730.365a.784.784,0,0,1,.116-.949l1.306-1.306a.8.8,0,0,0,.086-1.039,17.409,17.409,0,0,0-3.536-3.543.8.8,0,0,0-1.041.084l-1.309,1.309a.784.784,0,0,1-.949.117,14.148,14.148,0,0,0-3.325-1.38.771.771,0,0,1-.58-.74v-1.867a.8.8,0,0,0-.667-.79,16.508,16.508,0,0,0-5.021,0,.8.8,0,0,0-.668.79v1.9a.766.766,0,0,1-.527.733,22.429,22.429,0,0,0-3.4,1.368.763.763,0,0,1-.924-.128l-1.311-1.311a.8.8,0,0,0-1.041-.084,17.4,17.4,0,0,0-3.535,3.543.8.8,0,0,0,.086,1.039l1.305,1.306a.784.784,0,0,1,.117.949,14.177,14.177,0,0,0-1.206,2.734,1.654,1.654,0,0,1-1.11,1.1H83.231a.8.8,0,0,0-.79.666,16.653,16.653,0,0,0,0,5.095.8.8,0,0,0,.79.666h1.631a1.652,1.652,0,0,1,1.11,1.1,14.2,14.2,0,0,0,1.206,2.734.784.784,0,0,1-.117.949l-1.305,1.3a.8.8,0,0,0-.086,1.04,17.43,17.43,0,0,0,3.535,3.543.8.8,0,0,0,1.042-.084l1.308-1.309a.783.783,0,0,1,.949-.117,14.121,14.121,0,0,0,3.325,1.379.772.772,0,0,1,.58.741v1.867a.8.8,0,0,0,.668.79,16.508,16.508,0,0,0,5.021,0,.8.8,0,0,0,.667-.79v-2.463h0v-8.69c0-.082.021-.16.024-.242a5.756,5.756,0,0,1-2.269.89,5.929,5.929,0,1,1,4.986-5.682,5.96,5.96,0,0,1,3.263-.969,6.192,6.192,0,0,1,1.877.293,5.887,5.887,0,0,1,3.761,3.717h1.532a.8.8,0,0,0,.79-.666,16.57,16.57,0,0,0,0-5.095Z"/></g></svg>