<svg xmlns="http://www.w3.org/2000/svg" width="54.802" height="45.669" viewBox="0 0 54.802 45.669"><defs><style>.a{fill:#707383;}</style></defs><g transform="translate(-77.446 -1055.698)"><circle class="a" cx="4.567" cy="4.567" r="4.567" transform="translate(109.414 1076.249)"/><path class="a" d="M129.965,1067.115h-3.274l-6.186-10.309a2.283,2.283,0,0,0-3.284-.683l-15.389,10.992h7.858l8.173-5.837,3.5,5.837H111.7v4.567h15.984v18.268h-27.4v-4.567H95.713v6.85A2.284,2.284,0,0,0,98,1094.516h15.714l-.511,1.023a2.266,2.266,0,0,1-2.04,1.261h-14.5l-5.513-5.513v-11.809l5.513-5.513h8.188v2.284a2.284,2.284,0,0,1-2.283,2.283H98v4.567h4.567a6.858,6.858,0,0,0,6.85-6.85v-4.567a2.284,2.284,0,0,0-2.284-2.284H95.713a2.278,2.278,0,0,0-1.614.67l-4.186,4.186a2.22,2.22,0,0,0-1.05-.289H79.729a2.284,2.284,0,0,0-2.283,2.284v18.267a2.284,2.284,0,0,0,2.283,2.284h9.134a2.22,2.22,0,0,0,1.05-.289L94.1,1100.7a2.293,2.293,0,0,0,1.614.668H111.16a6.81,6.81,0,0,0,6.126-3.788l1.532-3.063h11.147a2.282,2.282,0,0,0,2.283-2.283V1069.4A2.282,2.282,0,0,0,129.965,1067.115Zm-43.386,25.118H82.012v-13.7h4.567Z"/></g></svg>